<svg
  viewBox="0 0 200 200"
  xmlns="http://www.w3.org/2000/svg"
>
  <path d="
    M96 16
    h8
    v13
    a63 70 0 0 1 63 70
    h-58
    a5 5 0 0 0 -5 5
    v53
    a9 9 0 0 1 9 4
    v24
    a9 9 0 0 1 -9 4
    h-8
    a9 9 0 0 1 -9 -4
    v-24
    a9 9 0 0 1 9 -4
    v-53
    a5 5 0 0 0 -5 -5
    h-58
    a63 70 0 0 1 63 -70
    z
    M43 90
    h23
    a110 110 0 0 1 15 -49
    a57 57 0 0 0 -38 49
    z
    M74 90
    h52
    a67 67 0 0 0 -26 -53
    a67 67 0 0 0 -26 53
    z
    M157 90
    a57 57 0 0 0 -38 -49
    a110 110 0 0 1 15 49
    z
    M93 160
    a1.8 1.8 0 0 0 0 3.6
    h6
    a1.8 1.8 0 0 1 0 3.6
    h-6
    a1.8 1.8 0 0 0 0 3.6
    h6
    a1.8 1.8 0 0 1 0 3.6
    h-6
    a1.8 1.8 0 0 0 0 3.6
    h6
    a1.8 1.8 0 0 1 0 3.6
    h-6
    a1.8 1.8 0 0 0 0 3.6
    h13
    a3 3 0 0 0 3 -2
    v-21.2
    a3 3 0 0 0 -3 -2
    z
  "></path>
</svg>